<svg xmlns="http://www.w3.org/2000/svg" viewBox="0 0 404 390" role="img" aria-label="Mapa do Brasil com os estados onde o escritório atua destacados">
<style>
.base{stroke:#0D3557;stroke-opacity:.16}
.on{stroke:#2E7590;stroke-opacity:.9}
.hq{fill:#0D3557}
.hq-ring{fill:none;stroke:#25D366;stroke-width:2;transform-origin:265px 288px;animation:hqp 3s ease-out infinite}
@keyframes hqp{0%{transform:scale(.4);opacity:.9}70%,100%{transform:scale(1.9);opacity:0}}
@media (prefers-reduced-motion:reduce){.hq-ring{animation:none;opacity:.35;transform:scale(1.2)}}
</style>
<path class="base" fill="none" stroke-width="3.4" stroke-linecap="round" d="M234.6 182.5h0M246.6 182.5h0M252.7 182.5h0M258.7 182.5h0M231.6 176.3h0M237.6 176.3h0M243.6 176.3h0M249.7 176.3h0M255.7 176.3h0M261.7 176.3h0M267.7 176.3h0M228.6 170.1h0M234.6 170.1h0M240.6 170.1h0M246.6 170.1h0M252.7 170.1h0M258.7 170.1h0M264.7 170.1h0M231.6 163.9h0M237.6 163.9h0M243.6 163.9h0M249.7 163.9h0M255.7 163.9h0M261.7 163.9h0M351.9 163.9h0M36.1 157.7h0M42.1 157.7h0M48.1 157.7h0M54.1 157.7h0M60.2 157.7h0M228.6 157.7h0M234.6 157.7h0M240.6 157.7h0M246.6 157.7h0M252.7 157.7h0M258.7 157.7h0M264.7 157.7h0M270.7 157.7h0M354.9 157.7h0M361.0 157.7h0M21.1 151.5h0M27.1 151.5h0M33.1 151.5h0M39.1 151.5h0M45.1 151.5h0M51.1 151.5h0M57.2 151.5h0M63.2 151.5h0M69.2 151.5h0M231.6 151.5h0M237.6 151.5h0M243.6 151.5h0M249.7 151.5h0M255.7 151.5h0M261.7 151.5h0M267.7 151.5h0M351.9 151.5h0M12.0 145.3h0M18.0 145.3h0M24.1 145.3h0M30.1 145.3h0M36.1 145.3h0M42.1 145.3h0M48.1 145.3h0M54.1 145.3h0M234.6 145.3h0M240.6 145.3h0M246.6 145.3h0M252.7 145.3h0M258.7 145.3h0M264.7 145.3h0M270.7 145.3h0M9.0 139.1h0M15.0 139.1h0M21.1 139.1h0M27.1 139.1h0M33.1 139.1h0M39.1 139.1h0M243.6 139.1h0M249.7 139.1h0M255.7 139.1h0M261.7 139.1h0M267.7 139.1h0M6.0 132.9h0M12.0 132.9h0M18.0 132.9h0M24.1 132.9h0M246.6 132.9h0M252.7 132.9h0M258.7 132.9h0M264.7 132.9h0M270.7 132.9h0M3.0 126.7h0M243.6 126.7h0M249.7 126.7h0M255.7 126.7h0M261.7 126.7h0M267.7 126.7h0M273.7 126.7h0M279.7 126.7h0M246.6 120.5h0M252.7 120.5h0M258.7 120.5h0M264.7 120.5h0M270.7 120.5h0M276.7 120.5h0M282.7 120.5h0M288.8 120.5h0M249.7 114.3h0M255.7 114.3h0M261.7 114.3h0M267.7 114.3h0M273.7 114.3h0M279.7 114.3h0M285.8 114.3h0M291.8 114.3h0M297.8 114.3h0M252.7 108.1h0M258.7 108.1h0M264.7 108.1h0M270.7 108.1h0M276.7 108.1h0M282.7 108.1h0M288.8 108.1h0M294.8 108.1h0M255.7 101.9h0M261.7 101.9h0M267.7 101.9h0M273.7 101.9h0M279.7 101.9h0M285.8 101.9h0M291.8 101.9h0M297.8 101.9h0M258.7 95.7h0M264.7 95.7h0M270.7 95.7h0M276.7 95.7h0M282.7 95.7h0M288.8 95.7h0M294.8 95.7h0M300.8 95.7h0M261.7 89.5h0M267.7 89.5h0M273.7 89.5h0M279.7 89.5h0M285.8 89.5h0M291.8 89.5h0M297.8 89.5h0M303.8 89.5h0M270.7 83.3h0M276.7 83.3h0M282.7 83.3h0M288.8 83.3h0M294.8 83.3h0M300.8 83.3h0M306.8 83.3h0M267.7 77.1h0M273.7 77.1h0M279.7 77.1h0M285.8 77.1h0M297.8 77.1h0M270.7 70.9h0M276.7 70.9h0M282.7 70.9h0M117.3 64.7h0M273.7 64.7h0M114.3 58.5h0M120.3 58.5h0M117.3 52.3h0M123.3 52.3h0M129.3 52.3h0M114.3 46.1h0M120.3 46.1h0M126.3 46.1h0M132.3 46.1h0M138.4 46.1h0M144.4 46.1h0M111.3 39.9h0M117.3 39.9h0M123.3 39.9h0M129.3 39.9h0M135.4 39.9h0M141.4 39.9h0M114.3 33.7h0M120.3 33.7h0M126.3 33.7h0M132.3 33.7h0M99.3 27.5h0M105.3 27.5h0M111.3 27.5h0M117.3 27.5h0M123.3 27.5h0M129.3 27.5h0M135.4 27.5h0M96.3 21.3h0M102.3 21.3h0M108.3 21.3h0M114.3 21.3h0M120.3 21.3h0M126.3 21.3h0M132.3 21.3h0M93.2 15.1h0M99.3 15.1h0M105.3 15.1h0M111.3 15.1h0M117.3 15.1h0M123.3 15.1h0M129.3 15.1h0M135.4 15.1h0M126.3 8.9h0M132.3 8.9h0M138.4 8.9h0M135.4 2.7h0"/>
<path class="on" fill="none" stroke-width="3.4" stroke-linecap="round" d="M201.5 387.1h0M201.5 374.7h0M207.5 374.7h0M192.5 368.5h0M198.5 368.5h0M204.5 368.5h0M210.6 368.5h0M183.5 362.3h0M189.5 362.3h0M195.5 362.3h0M201.5 362.3h0M207.5 362.3h0M213.6 362.3h0M225.6 362.3h0M174.5 356.1h0M180.5 356.1h0M186.5 356.1h0M192.5 356.1h0M198.5 356.1h0M204.5 356.1h0M210.6 356.1h0M216.6 356.1h0M228.6 356.1h0M165.4 349.9h0M171.5 349.9h0M177.5 349.9h0M183.5 349.9h0M189.5 349.9h0M195.5 349.9h0M201.5 349.9h0M207.5 349.9h0M213.6 349.9h0M219.6 349.9h0M225.6 349.9h0M231.6 349.9h0M174.5 343.7h0M180.5 343.7h0M186.5 343.7h0M192.5 343.7h0M198.5 343.7h0M204.5 343.7h0M210.6 343.7h0M216.6 343.7h0M222.6 343.7h0M228.6 343.7h0M234.6 343.7h0M177.5 337.5h0M183.5 337.5h0M189.5 337.5h0M195.5 337.5h0M201.5 337.5h0M207.5 337.5h0M213.6 337.5h0M219.6 337.5h0M225.6 337.5h0M231.6 337.5h0M237.6 337.5h0M243.6 337.5h0M186.5 331.3h0M192.5 331.3h0M198.5 331.3h0M204.5 331.3h0M210.6 331.3h0M216.6 331.3h0M222.6 331.3h0M228.6 331.3h0M234.6 331.3h0M240.6 331.3h0M195.5 325.1h0M201.5 325.1h0M207.5 325.1h0M213.6 325.1h0M219.6 325.1h0M225.6 325.1h0M231.6 325.1h0M237.6 325.1h0M243.6 325.1h0M198.5 318.9h0M204.5 318.9h0M210.6 318.9h0M216.6 318.9h0M222.6 318.9h0M228.6 318.9h0M234.6 318.9h0M240.6 318.9h0M201.5 312.7h0M207.5 312.7h0M213.6 312.7h0M219.6 312.7h0M225.6 312.7h0M231.6 312.7h0M237.6 312.7h0M243.6 312.7h0M192.5 306.5h0M198.5 306.5h0M204.5 306.5h0M210.6 306.5h0M216.6 306.5h0M222.6 306.5h0M228.6 306.5h0M234.6 306.5h0M240.6 306.5h0M246.6 306.5h0M195.5 300.3h0M201.5 300.3h0M207.5 300.3h0M213.6 300.3h0M219.6 300.3h0M225.6 300.3h0M231.6 300.3h0M237.6 300.3h0M243.6 300.3h0M249.7 300.3h0M255.7 300.3h0M192.5 294.1h0M198.5 294.1h0M204.5 294.1h0M210.6 294.1h0M216.6 294.1h0M222.6 294.1h0M228.6 294.1h0M234.6 294.1h0M240.6 294.1h0M246.6 294.1h0M252.7 294.1h0M258.7 294.1h0M264.7 294.1h0M183.5 287.9h0M189.5 287.9h0M195.5 287.9h0M201.5 287.9h0M207.5 287.9h0M213.6 287.9h0M219.6 287.9h0M225.6 287.9h0M231.6 287.9h0M237.6 287.9h0M243.6 287.9h0M249.7 287.9h0M255.7 287.9h0M261.7 287.9h0M267.7 287.9h0M273.7 287.9h0M180.5 281.7h0M186.5 281.7h0M192.5 281.7h0M198.5 281.7h0M204.5 281.7h0M210.6 281.7h0M216.6 281.7h0M222.6 281.7h0M228.6 281.7h0M234.6 281.7h0M240.6 281.7h0M246.6 281.7h0M252.7 281.7h0M258.7 281.7h0M264.7 281.7h0M270.7 281.7h0M276.7 281.7h0M282.7 281.7h0M288.8 281.7h0M294.8 281.7h0M300.8 281.7h0M306.8 281.7h0M177.5 275.5h0M183.5 275.5h0M189.5 275.5h0M195.5 275.5h0M201.5 275.5h0M207.5 275.5h0M213.6 275.5h0M219.6 275.5h0M225.6 275.5h0M231.6 275.5h0M237.6 275.5h0M243.6 275.5h0M249.7 275.5h0M255.7 275.5h0M261.7 275.5h0M267.7 275.5h0M273.7 275.5h0M279.7 275.5h0M285.8 275.5h0M291.8 275.5h0M297.8 275.5h0M303.8 275.5h0M309.8 275.5h0M156.4 269.3h0M162.4 269.3h0M168.4 269.3h0M174.5 269.3h0M180.5 269.3h0M186.5 269.3h0M192.5 269.3h0M198.5 269.3h0M204.5 269.3h0M210.6 269.3h0M216.6 269.3h0M222.6 269.3h0M228.6 269.3h0M234.6 269.3h0M240.6 269.3h0M246.6 269.3h0M252.7 269.3h0M258.7 269.3h0M264.7 269.3h0M270.7 269.3h0M276.7 269.3h0M282.7 269.3h0M288.8 269.3h0M294.8 269.3h0M300.8 269.3h0M306.8 269.3h0M312.8 269.3h0M318.8 269.3h0M159.4 263.1h0M165.4 263.1h0M171.5 263.1h0M177.5 263.1h0M183.5 263.1h0M189.5 263.1h0M195.5 263.1h0M201.5 263.1h0M207.5 263.1h0M213.6 263.1h0M219.6 263.1h0M225.6 263.1h0M231.6 263.1h0M237.6 263.1h0M243.6 263.1h0M249.7 263.1h0M255.7 263.1h0M261.7 263.1h0M267.7 263.1h0M273.7 263.1h0M279.7 263.1h0M285.8 263.1h0M291.8 263.1h0M297.8 263.1h0M303.8 263.1h0M309.8 263.1h0M315.8 263.1h0M156.4 256.9h0M162.4 256.9h0M168.4 256.9h0M174.5 256.9h0M180.5 256.9h0M186.5 256.9h0M192.5 256.9h0M198.5 256.9h0M204.5 256.9h0M210.6 256.9h0M216.6 256.9h0M222.6 256.9h0M228.6 256.9h0M234.6 256.9h0M240.6 256.9h0M246.6 256.9h0M252.7 256.9h0M258.7 256.9h0M264.7 256.9h0M270.7 256.9h0M276.7 256.9h0M282.7 256.9h0M288.8 256.9h0M294.8 256.9h0M300.8 256.9h0M306.8 256.9h0M312.8 256.9h0M318.8 256.9h0M324.9 256.9h0M159.4 250.7h0M165.4 250.7h0M171.5 250.7h0M177.5 250.7h0M183.5 250.7h0M189.5 250.7h0M195.5 250.7h0M201.5 250.7h0M207.5 250.7h0M213.6 250.7h0M219.6 250.7h0M225.6 250.7h0M231.6 250.7h0M237.6 250.7h0M243.6 250.7h0M249.7 250.7h0M255.7 250.7h0M261.7 250.7h0M267.7 250.7h0M273.7 250.7h0M279.7 250.7h0M285.8 250.7h0M291.8 250.7h0M297.8 250.7h0M303.8 250.7h0M309.8 250.7h0M315.8 250.7h0M321.8 250.7h0M327.9 250.7h0M162.4 244.5h0M168.4 244.5h0M174.5 244.5h0M180.5 244.5h0M186.5 244.5h0M192.5 244.5h0M198.5 244.5h0M204.5 244.5h0M210.6 244.5h0M216.6 244.5h0M222.6 244.5h0M228.6 244.5h0M234.6 244.5h0M240.6 244.5h0M246.6 244.5h0M252.7 244.5h0M258.7 244.5h0M264.7 244.5h0M270.7 244.5h0M276.7 244.5h0M282.7 244.5h0M288.8 244.5h0M294.8 244.5h0M300.8 244.5h0M306.8 244.5h0M312.8 244.5h0M318.8 244.5h0M324.9 244.5h0M330.9 244.5h0M159.4 238.3h0M165.4 238.3h0M171.5 238.3h0M177.5 238.3h0M183.5 238.3h0M189.5 238.3h0M195.5 238.3h0M201.5 238.3h0M207.5 238.3h0M213.6 238.3h0M219.6 238.3h0M225.6 238.3h0M231.6 238.3h0M237.6 238.3h0M243.6 238.3h0M249.7 238.3h0M255.7 238.3h0M261.7 238.3h0M267.7 238.3h0M273.7 238.3h0M279.7 238.3h0M285.8 238.3h0M291.8 238.3h0M297.8 238.3h0M303.8 238.3h0M309.8 238.3h0M315.8 238.3h0M321.8 238.3h0M327.9 238.3h0M162.4 232.1h0M168.4 232.1h0M174.5 232.1h0M180.5 232.1h0M186.5 232.1h0M192.5 232.1h0M198.5 232.1h0M204.5 232.1h0M210.6 232.1h0M216.6 232.1h0M222.6 232.1h0M228.6 232.1h0M234.6 232.1h0M240.6 232.1h0M246.6 232.1h0M252.7 232.1h0M258.7 232.1h0M264.7 232.1h0M270.7 232.1h0M276.7 232.1h0M282.7 232.1h0M288.8 232.1h0M294.8 232.1h0M300.8 232.1h0M306.8 232.1h0M312.8 232.1h0M318.8 232.1h0M324.9 232.1h0M330.9 232.1h0M153.4 225.9h0M159.4 225.9h0M165.4 225.9h0M171.5 225.9h0M177.5 225.9h0M183.5 225.9h0M189.5 225.9h0M195.5 225.9h0M201.5 225.9h0M207.5 225.9h0M213.6 225.9h0M219.6 225.9h0M225.6 225.9h0M231.6 225.9h0M237.6 225.9h0M243.6 225.9h0M249.7 225.9h0M255.7 225.9h0M261.7 225.9h0M267.7 225.9h0M273.7 225.9h0M279.7 225.9h0M285.8 225.9h0M291.8 225.9h0M297.8 225.9h0M303.8 225.9h0M309.8 225.9h0M315.8 225.9h0M321.8 225.9h0M327.9 225.9h0M333.9 225.9h0M156.4 219.7h0M162.4 219.7h0M168.4 219.7h0M174.5 219.7h0M180.5 219.7h0M186.5 219.7h0M192.5 219.7h0M198.5 219.7h0M204.5 219.7h0M210.6 219.7h0M216.6 219.7h0M222.6 219.7h0M228.6 219.7h0M234.6 219.7h0M240.6 219.7h0M246.6 219.7h0M252.7 219.7h0M258.7 219.7h0M264.7 219.7h0M270.7 219.7h0M276.7 219.7h0M282.7 219.7h0M288.8 219.7h0M294.8 219.7h0M300.8 219.7h0M306.8 219.7h0M312.8 219.7h0M318.8 219.7h0M324.9 219.7h0M330.9 219.7h0M336.9 219.7h0M135.4 213.5h0M141.4 213.5h0M147.4 213.5h0M153.4 213.5h0M159.4 213.5h0M165.4 213.5h0M171.5 213.5h0M177.5 213.5h0M183.5 213.5h0M189.5 213.5h0M195.5 213.5h0M201.5 213.5h0M207.5 213.5h0M213.6 213.5h0M219.6 213.5h0M225.6 213.5h0M231.6 213.5h0M237.6 213.5h0M243.6 213.5h0M249.7 213.5h0M255.7 213.5h0M261.7 213.5h0M267.7 213.5h0M273.7 213.5h0M279.7 213.5h0M285.8 213.5h0M291.8 213.5h0M297.8 213.5h0M303.8 213.5h0M309.8 213.5h0M315.8 213.5h0M321.8 213.5h0M327.9 213.5h0M333.9 213.5h0M339.9 213.5h0M138.4 207.3h0M144.4 207.3h0M150.4 207.3h0M156.4 207.3h0M162.4 207.3h0M168.4 207.3h0M174.5 207.3h0M180.5 207.3h0M186.5 207.3h0M192.5 207.3h0M198.5 207.3h0M204.5 207.3h0M210.6 207.3h0M216.6 207.3h0M222.6 207.3h0M228.6 207.3h0M234.6 207.3h0M240.6 207.3h0M246.6 207.3h0M252.7 207.3h0M258.7 207.3h0M264.7 207.3h0M270.7 207.3h0M276.7 207.3h0M282.7 207.3h0M288.8 207.3h0M294.8 207.3h0M300.8 207.3h0M306.8 207.3h0M312.8 207.3h0M318.8 207.3h0M324.9 207.3h0M330.9 207.3h0M336.9 207.3h0M135.4 201.1h0M141.4 201.1h0M147.4 201.1h0M153.4 201.1h0M159.4 201.1h0M165.4 201.1h0M171.5 201.1h0M177.5 201.1h0M183.5 201.1h0M189.5 201.1h0M195.5 201.1h0M201.5 201.1h0M207.5 201.1h0M213.6 201.1h0M219.6 201.1h0M225.6 201.1h0M231.6 201.1h0M237.6 201.1h0M243.6 201.1h0M249.7 201.1h0M255.7 201.1h0M261.7 201.1h0M267.7 201.1h0M273.7 201.1h0M279.7 201.1h0M285.8 201.1h0M291.8 201.1h0M297.8 201.1h0M303.8 201.1h0M309.8 201.1h0M315.8 201.1h0M321.8 201.1h0M327.9 201.1h0M333.9 201.1h0M132.3 194.9h0M138.4 194.9h0M144.4 194.9h0M150.4 194.9h0M156.4 194.9h0M162.4 194.9h0M168.4 194.9h0M174.5 194.9h0M180.5 194.9h0M186.5 194.9h0M192.5 194.9h0M198.5 194.9h0M204.5 194.9h0M210.6 194.9h0M216.6 194.9h0M222.6 194.9h0M228.6 194.9h0M234.6 194.9h0M240.6 194.9h0M246.6 194.9h0M252.7 194.9h0M258.7 194.9h0M264.7 194.9h0M270.7 194.9h0M276.7 194.9h0M282.7 194.9h0M288.8 194.9h0M294.8 194.9h0M300.8 194.9h0M306.8 194.9h0M312.8 194.9h0M318.8 194.9h0M324.9 194.9h0M330.9 194.9h0M336.9 194.9h0M129.3 188.7h0M135.4 188.7h0M141.4 188.7h0M147.4 188.7h0M153.4 188.7h0M159.4 188.7h0M165.4 188.7h0M171.5 188.7h0M177.5 188.7h0M183.5 188.7h0M189.5 188.7h0M195.5 188.7h0M201.5 188.7h0M207.5 188.7h0M213.6 188.7h0M219.6 188.7h0M225.6 188.7h0M231.6 188.7h0M237.6 188.7h0M243.6 188.7h0M249.7 188.7h0M255.7 188.7h0M261.7 188.7h0M267.7 188.7h0M273.7 188.7h0M279.7 188.7h0M285.8 188.7h0M291.8 188.7h0M297.8 188.7h0M303.8 188.7h0M309.8 188.7h0M315.8 188.7h0M321.8 188.7h0M327.9 188.7h0M333.9 188.7h0M339.9 188.7h0M114.3 182.5h0M120.3 182.5h0M126.3 182.5h0M132.3 182.5h0M138.4 182.5h0M144.4 182.5h0M150.4 182.5h0M156.4 182.5h0M162.4 182.5h0M168.4 182.5h0M174.5 182.5h0M180.5 182.5h0M186.5 182.5h0M192.5 182.5h0M198.5 182.5h0M204.5 182.5h0M210.6 182.5h0M216.6 182.5h0M222.6 182.5h0M228.6 182.5h0M240.6 182.5h0M264.7 182.5h0M270.7 182.5h0M276.7 182.5h0M282.7 182.5h0M288.8 182.5h0M294.8 182.5h0M300.8 182.5h0M306.8 182.5h0M312.8 182.5h0M318.8 182.5h0M324.9 182.5h0M330.9 182.5h0M336.9 182.5h0M342.9 182.5h0M93.2 176.3h0M99.3 176.3h0M105.3 176.3h0M111.3 176.3h0M117.3 176.3h0M123.3 176.3h0M129.3 176.3h0M135.4 176.3h0M141.4 176.3h0M147.4 176.3h0M153.4 176.3h0M159.4 176.3h0M165.4 176.3h0M171.5 176.3h0M177.5 176.3h0M183.5 176.3h0M189.5 176.3h0M195.5 176.3h0M201.5 176.3h0M207.5 176.3h0M213.6 176.3h0M219.6 176.3h0M225.6 176.3h0M273.7 176.3h0M279.7 176.3h0M285.8 176.3h0M291.8 176.3h0M297.8 176.3h0M303.8 176.3h0M309.8 176.3h0M315.8 176.3h0M321.8 176.3h0M327.9 176.3h0M333.9 176.3h0M339.9 176.3h0M345.9 176.3h0M90.2 170.1h0M96.3 170.1h0M102.3 170.1h0M108.3 170.1h0M114.3 170.1h0M120.3 170.1h0M126.3 170.1h0M132.3 170.1h0M138.4 170.1h0M144.4 170.1h0M150.4 170.1h0M156.4 170.1h0M162.4 170.1h0M168.4 170.1h0M174.5 170.1h0M180.5 170.1h0M186.5 170.1h0M192.5 170.1h0M198.5 170.1h0M204.5 170.1h0M210.6 170.1h0M216.6 170.1h0M222.6 170.1h0M270.7 170.1h0M276.7 170.1h0M282.7 170.1h0M288.8 170.1h0M294.8 170.1h0M300.8 170.1h0M306.8 170.1h0M312.8 170.1h0M318.8 170.1h0M324.9 170.1h0M330.9 170.1h0M336.9 170.1h0M342.9 170.1h0M348.9 170.1h0M87.2 163.9h0M93.2 163.9h0M99.3 163.9h0M105.3 163.9h0M111.3 163.9h0M117.3 163.9h0M123.3 163.9h0M129.3 163.9h0M135.4 163.9h0M141.4 163.9h0M147.4 163.9h0M153.4 163.9h0M159.4 163.9h0M165.4 163.9h0M171.5 163.9h0M177.5 163.9h0M183.5 163.9h0M189.5 163.9h0M195.5 163.9h0M201.5 163.9h0M207.5 163.9h0M213.6 163.9h0M219.6 163.9h0M225.6 163.9h0M267.7 163.9h0M273.7 163.9h0M279.7 163.9h0M285.8 163.9h0M291.8 163.9h0M297.8 163.9h0M303.8 163.9h0M309.8 163.9h0M315.8 163.9h0M321.8 163.9h0M327.9 163.9h0M333.9 163.9h0M339.9 163.9h0M345.9 163.9h0M84.2 157.7h0M90.2 157.7h0M96.3 157.7h0M102.3 157.7h0M108.3 157.7h0M114.3 157.7h0M120.3 157.7h0M126.3 157.7h0M132.3 157.7h0M138.4 157.7h0M144.4 157.7h0M150.4 157.7h0M156.4 157.7h0M162.4 157.7h0M168.4 157.7h0M174.5 157.7h0M180.5 157.7h0M186.5 157.7h0M192.5 157.7h0M198.5 157.7h0M204.5 157.7h0M210.6 157.7h0M216.6 157.7h0M222.6 157.7h0M276.7 157.7h0M282.7 157.7h0M288.8 157.7h0M294.8 157.7h0M300.8 157.7h0M306.8 157.7h0M312.8 157.7h0M318.8 157.7h0M324.9 157.7h0M330.9 157.7h0M336.9 157.7h0M342.9 157.7h0M348.9 157.7h0M87.2 151.5h0M93.2 151.5h0M99.3 151.5h0M105.3 151.5h0M111.3 151.5h0M117.3 151.5h0M123.3 151.5h0M129.3 151.5h0M135.4 151.5h0M141.4 151.5h0M147.4 151.5h0M153.4 151.5h0M159.4 151.5h0M165.4 151.5h0M171.5 151.5h0M177.5 151.5h0M183.5 151.5h0M189.5 151.5h0M195.5 151.5h0M201.5 151.5h0M207.5 151.5h0M213.6 151.5h0M219.6 151.5h0M225.6 151.5h0M273.7 151.5h0M279.7 151.5h0M285.8 151.5h0M291.8 151.5h0M297.8 151.5h0M303.8 151.5h0M309.8 151.5h0M315.8 151.5h0M321.8 151.5h0M327.9 151.5h0M333.9 151.5h0M339.9 151.5h0M345.9 151.5h0M357.9 151.5h0M364.0 151.5h0M60.2 145.3h0M66.2 145.3h0M72.2 145.3h0M78.2 145.3h0M84.2 145.3h0M90.2 145.3h0M96.3 145.3h0M102.3 145.3h0M108.3 145.3h0M114.3 145.3h0M120.3 145.3h0M126.3 145.3h0M132.3 145.3h0M138.4 145.3h0M144.4 145.3h0M150.4 145.3h0M156.4 145.3h0M162.4 145.3h0M168.4 145.3h0M174.5 145.3h0M180.5 145.3h0M186.5 145.3h0M192.5 145.3h0M198.5 145.3h0M204.5 145.3h0M210.6 145.3h0M216.6 145.3h0M222.6 145.3h0M228.6 145.3h0M276.7 145.3h0M282.7 145.3h0M288.8 145.3h0M294.8 145.3h0M300.8 145.3h0M306.8 145.3h0M312.8 145.3h0M318.8 145.3h0M324.9 145.3h0M330.9 145.3h0M336.9 145.3h0M342.9 145.3h0M348.9 145.3h0M354.9 145.3h0M361.0 145.3h0M367.0 145.3h0M373.0 145.3h0M45.1 139.1h0M51.1 139.1h0M57.2 139.1h0M63.2 139.1h0M69.2 139.1h0M75.2 139.1h0M81.2 139.1h0M87.2 139.1h0M93.2 139.1h0M99.3 139.1h0M105.3 139.1h0M111.3 139.1h0M117.3 139.1h0M123.3 139.1h0M129.3 139.1h0M135.4 139.1h0M141.4 139.1h0M147.4 139.1h0M153.4 139.1h0M159.4 139.1h0M165.4 139.1h0M171.5 139.1h0M177.5 139.1h0M183.5 139.1h0M189.5 139.1h0M195.5 139.1h0M201.5 139.1h0M207.5 139.1h0M213.6 139.1h0M219.6 139.1h0M225.6 139.1h0M231.6 139.1h0M237.6 139.1h0M273.7 139.1h0M279.7 139.1h0M285.8 139.1h0M291.8 139.1h0M297.8 139.1h0M303.8 139.1h0M309.8 139.1h0M315.8 139.1h0M321.8 139.1h0M327.9 139.1h0M333.9 139.1h0M339.9 139.1h0M345.9 139.1h0M351.9 139.1h0M357.9 139.1h0M364.0 139.1h0M370.0 139.1h0M376.0 139.1h0M30.1 132.9h0M36.1 132.9h0M42.1 132.9h0M48.1 132.9h0M54.1 132.9h0M60.2 132.9h0M66.2 132.9h0M72.2 132.9h0M78.2 132.9h0M84.2 132.9h0M90.2 132.9h0M96.3 132.9h0M102.3 132.9h0M108.3 132.9h0M114.3 132.9h0M120.3 132.9h0M126.3 132.9h0M132.3 132.9h0M138.4 132.9h0M144.4 132.9h0M150.4 132.9h0M156.4 132.9h0M162.4 132.9h0M168.4 132.9h0M174.5 132.9h0M180.5 132.9h0M186.5 132.9h0M192.5 132.9h0M198.5 132.9h0M204.5 132.9h0M210.6 132.9h0M216.6 132.9h0M222.6 132.9h0M228.6 132.9h0M234.6 132.9h0M240.6 132.9h0M276.7 132.9h0M282.7 132.9h0M288.8 132.9h0M294.8 132.9h0M300.8 132.9h0M306.8 132.9h0M312.8 132.9h0M318.8 132.9h0M324.9 132.9h0M330.9 132.9h0M336.9 132.9h0M342.9 132.9h0M348.9 132.9h0M354.9 132.9h0M361.0 132.9h0M367.0 132.9h0M373.0 132.9h0M379.0 132.9h0M9.0 126.7h0M15.0 126.7h0M21.1 126.7h0M27.1 126.7h0M33.1 126.7h0M39.1 126.7h0M45.1 126.7h0M51.1 126.7h0M57.2 126.7h0M63.2 126.7h0M69.2 126.7h0M75.2 126.7h0M81.2 126.7h0M87.2 126.7h0M93.2 126.7h0M99.3 126.7h0M105.3 126.7h0M111.3 126.7h0M117.3 126.7h0M123.3 126.7h0M129.3 126.7h0M135.4 126.7h0M141.4 126.7h0M147.4 126.7h0M153.4 126.7h0M159.4 126.7h0M165.4 126.7h0M171.5 126.7h0M177.5 126.7h0M183.5 126.7h0M189.5 126.7h0M195.5 126.7h0M201.5 126.7h0M207.5 126.7h0M213.6 126.7h0M219.6 126.7h0M225.6 126.7h0M231.6 126.7h0M237.6 126.7h0M285.8 126.7h0M291.8 126.7h0M297.8 126.7h0M303.8 126.7h0M309.8 126.7h0M315.8 126.7h0M321.8 126.7h0M327.9 126.7h0M333.9 126.7h0M339.9 126.7h0M345.9 126.7h0M351.9 126.7h0M357.9 126.7h0M364.0 126.7h0M370.0 126.7h0M376.0 126.7h0M6.0 120.5h0M12.0 120.5h0M18.0 120.5h0M24.1 120.5h0M30.1 120.5h0M36.1 120.5h0M42.1 120.5h0M48.1 120.5h0M54.1 120.5h0M60.2 120.5h0M66.2 120.5h0M72.2 120.5h0M78.2 120.5h0M84.2 120.5h0M90.2 120.5h0M96.3 120.5h0M102.3 120.5h0M108.3 120.5h0M114.3 120.5h0M120.3 120.5h0M126.3 120.5h0M132.3 120.5h0M138.4 120.5h0M144.4 120.5h0M150.4 120.5h0M156.4 120.5h0M162.4 120.5h0M168.4 120.5h0M174.5 120.5h0M180.5 120.5h0M186.5 120.5h0M192.5 120.5h0M198.5 120.5h0M204.5 120.5h0M210.6 120.5h0M216.6 120.5h0M222.6 120.5h0M228.6 120.5h0M234.6 120.5h0M240.6 120.5h0M294.8 120.5h0M300.8 120.5h0M306.8 120.5h0M312.8 120.5h0M318.8 120.5h0M324.9 120.5h0M330.9 120.5h0M336.9 120.5h0M342.9 120.5h0M348.9 120.5h0M354.9 120.5h0M361.0 120.5h0M367.0 120.5h0M373.0 120.5h0M379.0 120.5h0M9.0 114.3h0M15.0 114.3h0M21.1 114.3h0M27.1 114.3h0M33.1 114.3h0M39.1 114.3h0M45.1 114.3h0M51.1 114.3h0M57.2 114.3h0M63.2 114.3h0M69.2 114.3h0M75.2 114.3h0M81.2 114.3h0M87.2 114.3h0M93.2 114.3h0M99.3 114.3h0M105.3 114.3h0M111.3 114.3h0M117.3 114.3h0M123.3 114.3h0M129.3 114.3h0M135.4 114.3h0M141.4 114.3h0M147.4 114.3h0M153.4 114.3h0M159.4 114.3h0M165.4 114.3h0M171.5 114.3h0M177.5 114.3h0M183.5 114.3h0M189.5 114.3h0M195.5 114.3h0M201.5 114.3h0M207.5 114.3h0M213.6 114.3h0M219.6 114.3h0M225.6 114.3h0M231.6 114.3h0M237.6 114.3h0M243.6 114.3h0M303.8 114.3h0M309.8 114.3h0M315.8 114.3h0M321.8 114.3h0M327.9 114.3h0M333.9 114.3h0M339.9 114.3h0M345.9 114.3h0M351.9 114.3h0M357.9 114.3h0M364.0 114.3h0M370.0 114.3h0M376.0 114.3h0M12.0 108.1h0M18.0 108.1h0M24.1 108.1h0M30.1 108.1h0M36.1 108.1h0M42.1 108.1h0M48.1 108.1h0M54.1 108.1h0M60.2 108.1h0M66.2 108.1h0M72.2 108.1h0M78.2 108.1h0M84.2 108.1h0M90.2 108.1h0M96.3 108.1h0M102.3 108.1h0M108.3 108.1h0M114.3 108.1h0M120.3 108.1h0M126.3 108.1h0M132.3 108.1h0M138.4 108.1h0M144.4 108.1h0M150.4 108.1h0M156.4 108.1h0M162.4 108.1h0M168.4 108.1h0M174.5 108.1h0M180.5 108.1h0M186.5 108.1h0M192.5 108.1h0M198.5 108.1h0M204.5 108.1h0M210.6 108.1h0M216.6 108.1h0M222.6 108.1h0M228.6 108.1h0M234.6 108.1h0M240.6 108.1h0M246.6 108.1h0M300.8 108.1h0M306.8 108.1h0M312.8 108.1h0M318.8 108.1h0M324.9 108.1h0M330.9 108.1h0M336.9 108.1h0M342.9 108.1h0M348.9 108.1h0M354.9 108.1h0M361.0 108.1h0M367.0 108.1h0M373.0 108.1h0M15.0 101.9h0M21.1 101.9h0M27.1 101.9h0M33.1 101.9h0M39.1 101.9h0M45.1 101.9h0M51.1 101.9h0M57.2 101.9h0M63.2 101.9h0M69.2 101.9h0M75.2 101.9h0M81.2 101.9h0M87.2 101.9h0M93.2 101.9h0M99.3 101.9h0M105.3 101.9h0M111.3 101.9h0M117.3 101.9h0M123.3 101.9h0M129.3 101.9h0M135.4 101.9h0M141.4 101.9h0M147.4 101.9h0M153.4 101.9h0M159.4 101.9h0M165.4 101.9h0M171.5 101.9h0M177.5 101.9h0M183.5 101.9h0M189.5 101.9h0M195.5 101.9h0M201.5 101.9h0M207.5 101.9h0M213.6 101.9h0M219.6 101.9h0M225.6 101.9h0M231.6 101.9h0M237.6 101.9h0M243.6 101.9h0M249.7 101.9h0M303.8 101.9h0M309.8 101.9h0M315.8 101.9h0M321.8 101.9h0M327.9 101.9h0M333.9 101.9h0M339.9 101.9h0M345.9 101.9h0M351.9 101.9h0M42.1 95.7h0M48.1 95.7h0M54.1 95.7h0M60.2 95.7h0M66.2 95.7h0M72.2 95.7h0M78.2 95.7h0M84.2 95.7h0M90.2 95.7h0M96.3 95.7h0M102.3 95.7h0M108.3 95.7h0M114.3 95.7h0M120.3 95.7h0M126.3 95.7h0M132.3 95.7h0M138.4 95.7h0M144.4 95.7h0M150.4 95.7h0M156.4 95.7h0M162.4 95.7h0M168.4 95.7h0M174.5 95.7h0M180.5 95.7h0M186.5 95.7h0M192.5 95.7h0M198.5 95.7h0M204.5 95.7h0M210.6 95.7h0M216.6 95.7h0M222.6 95.7h0M228.6 95.7h0M234.6 95.7h0M240.6 95.7h0M246.6 95.7h0M252.7 95.7h0M306.8 95.7h0M312.8 95.7h0M318.8 95.7h0M324.9 95.7h0M330.9 95.7h0M336.9 95.7h0M342.9 95.7h0M348.9 95.7h0M45.1 89.5h0M51.1 89.5h0M57.2 89.5h0M63.2 89.5h0M69.2 89.5h0M75.2 89.5h0M81.2 89.5h0M87.2 89.5h0M93.2 89.5h0M99.3 89.5h0M105.3 89.5h0M111.3 89.5h0M117.3 89.5h0M123.3 89.5h0M129.3 89.5h0M135.4 89.5h0M141.4 89.5h0M147.4 89.5h0M153.4 89.5h0M159.4 89.5h0M165.4 89.5h0M171.5 89.5h0M177.5 89.5h0M183.5 89.5h0M189.5 89.5h0M195.5 89.5h0M201.5 89.5h0M207.5 89.5h0M213.6 89.5h0M219.6 89.5h0M225.6 89.5h0M231.6 89.5h0M237.6 89.5h0M243.6 89.5h0M249.7 89.5h0M255.7 89.5h0M309.8 89.5h0M315.8 89.5h0M321.8 89.5h0M327.9 89.5h0M333.9 89.5h0M339.9 89.5h0M42.1 83.3h0M48.1 83.3h0M54.1 83.3h0M60.2 83.3h0M66.2 83.3h0M72.2 83.3h0M78.2 83.3h0M84.2 83.3h0M90.2 83.3h0M96.3 83.3h0M102.3 83.3h0M108.3 83.3h0M114.3 83.3h0M120.3 83.3h0M126.3 83.3h0M132.3 83.3h0M138.4 83.3h0M144.4 83.3h0M150.4 83.3h0M156.4 83.3h0M162.4 83.3h0M168.4 83.3h0M174.5 83.3h0M180.5 83.3h0M186.5 83.3h0M192.5 83.3h0M198.5 83.3h0M204.5 83.3h0M210.6 83.3h0M216.6 83.3h0M222.6 83.3h0M228.6 83.3h0M234.6 83.3h0M240.6 83.3h0M246.6 83.3h0M252.7 83.3h0M258.7 83.3h0M264.7 83.3h0M312.8 83.3h0M318.8 83.3h0M324.9 83.3h0M330.9 83.3h0M45.1 77.1h0M51.1 77.1h0M57.2 77.1h0M63.2 77.1h0M69.2 77.1h0M75.2 77.1h0M81.2 77.1h0M87.2 77.1h0M93.2 77.1h0M99.3 77.1h0M105.3 77.1h0M111.3 77.1h0M117.3 77.1h0M123.3 77.1h0M129.3 77.1h0M135.4 77.1h0M141.4 77.1h0M147.4 77.1h0M153.4 77.1h0M159.4 77.1h0M165.4 77.1h0M171.5 77.1h0M177.5 77.1h0M183.5 77.1h0M189.5 77.1h0M195.5 77.1h0M201.5 77.1h0M207.5 77.1h0M213.6 77.1h0M219.6 77.1h0M225.6 77.1h0M231.6 77.1h0M237.6 77.1h0M243.6 77.1h0M249.7 77.1h0M255.7 77.1h0M261.7 77.1h0M48.1 70.9h0M54.1 70.9h0M60.2 70.9h0M66.2 70.9h0M72.2 70.9h0M78.2 70.9h0M84.2 70.9h0M90.2 70.9h0M96.3 70.9h0M102.3 70.9h0M108.3 70.9h0M114.3 70.9h0M120.3 70.9h0M126.3 70.9h0M132.3 70.9h0M138.4 70.9h0M144.4 70.9h0M150.4 70.9h0M156.4 70.9h0M162.4 70.9h0M168.4 70.9h0M174.5 70.9h0M180.5 70.9h0M186.5 70.9h0M192.5 70.9h0M198.5 70.9h0M204.5 70.9h0M210.6 70.9h0M216.6 70.9h0M222.6 70.9h0M228.6 70.9h0M234.6 70.9h0M240.6 70.9h0M246.6 70.9h0M252.7 70.9h0M258.7 70.9h0M264.7 70.9h0M45.1 64.7h0M51.1 64.7h0M57.2 64.7h0M63.2 64.7h0M69.2 64.7h0M75.2 64.7h0M81.2 64.7h0M87.2 64.7h0M93.2 64.7h0M99.3 64.7h0M105.3 64.7h0M111.3 64.7h0M123.3 64.7h0M129.3 64.7h0M135.4 64.7h0M141.4 64.7h0M147.4 64.7h0M153.4 64.7h0M159.4 64.7h0M165.4 64.7h0M171.5 64.7h0M177.5 64.7h0M183.5 64.7h0M189.5 64.7h0M195.5 64.7h0M201.5 64.7h0M207.5 64.7h0M213.6 64.7h0M219.6 64.7h0M225.6 64.7h0M231.6 64.7h0M237.6 64.7h0M243.6 64.7h0M249.7 64.7h0M255.7 64.7h0M261.7 64.7h0M267.7 64.7h0M48.1 58.5h0M54.1 58.5h0M60.2 58.5h0M66.2 58.5h0M72.2 58.5h0M78.2 58.5h0M84.2 58.5h0M90.2 58.5h0M96.3 58.5h0M102.3 58.5h0M108.3 58.5h0M126.3 58.5h0M132.3 58.5h0M138.4 58.5h0M144.4 58.5h0M150.4 58.5h0M156.4 58.5h0M162.4 58.5h0M168.4 58.5h0M174.5 58.5h0M180.5 58.5h0M186.5 58.5h0M192.5 58.5h0M198.5 58.5h0M204.5 58.5h0M210.6 58.5h0M216.6 58.5h0M222.6 58.5h0M228.6 58.5h0M234.6 58.5h0M240.6 58.5h0M246.6 58.5h0M39.1 52.3h0M45.1 52.3h0M51.1 52.3h0M57.2 52.3h0M63.2 52.3h0M69.2 52.3h0M75.2 52.3h0M81.2 52.3h0M87.2 52.3h0M93.2 52.3h0M99.3 52.3h0M105.3 52.3h0M111.3 52.3h0M135.4 52.3h0M141.4 52.3h0M147.4 52.3h0M153.4 52.3h0M159.4 52.3h0M165.4 52.3h0M171.5 52.3h0M177.5 52.3h0M183.5 52.3h0M189.5 52.3h0M195.5 52.3h0M201.5 52.3h0M207.5 52.3h0M213.6 52.3h0M219.6 52.3h0M225.6 52.3h0M231.6 52.3h0M237.6 52.3h0M42.1 46.1h0M48.1 46.1h0M54.1 46.1h0M60.2 46.1h0M66.2 46.1h0M72.2 46.1h0M78.2 46.1h0M84.2 46.1h0M90.2 46.1h0M96.3 46.1h0M102.3 46.1h0M108.3 46.1h0M150.4 46.1h0M156.4 46.1h0M162.4 46.1h0M168.4 46.1h0M174.5 46.1h0M180.5 46.1h0M186.5 46.1h0M192.5 46.1h0M198.5 46.1h0M204.5 46.1h0M210.6 46.1h0M216.6 46.1h0M222.6 46.1h0M228.6 46.1h0M45.1 39.9h0M51.1 39.9h0M57.2 39.9h0M63.2 39.9h0M93.2 39.9h0M99.3 39.9h0M105.3 39.9h0M153.4 39.9h0M159.4 39.9h0M165.4 39.9h0M171.5 39.9h0M177.5 39.9h0M183.5 39.9h0M189.5 39.9h0M195.5 39.9h0M201.5 39.9h0M207.5 39.9h0M213.6 39.9h0M219.6 39.9h0M225.6 39.9h0M231.6 39.9h0M60.2 33.7h0M102.3 33.7h0M108.3 33.7h0M162.4 33.7h0M168.4 33.7h0M180.5 33.7h0M186.5 33.7h0M192.5 33.7h0M198.5 33.7h0M204.5 33.7h0M210.6 33.7h0M216.6 33.7h0M222.6 33.7h0M228.6 33.7h0M183.5 27.5h0M213.6 27.5h0M219.6 27.5h0M210.6 21.3h0M216.6 21.3h0M222.6 21.3h0M219.6 15.1h0"/>
<circle class="hq-ring" cx="265" cy="288" r="9"/>
<circle class="hq" cx="265" cy="288" r="5.2"/>
</svg>