<svg xmlns="http://www.w3.org/2000/svg" viewBox="0 0 632 881"><defs><linearGradient id="sb" x1="0" y1="0" x2="1" y2="1"><stop offset="0" stop-color="#9AD7E9"/><stop offset=".5" stop-color="#77B9C9"/><stop offset="1" stop-color="#519EAD"/></linearGradient></defs><path d="M98.7,875.1C70.2,857.9 48.6,837.1 32.6,811.5C7.0,770.8 -4.8,715.1 2.6,670.5C5.6,652.7 13.6,625.1 20.5,608.9C27.9,591.7 42.0,569.8 57.8,551.0C69.7,536.8 68.7,537.4 73.9,541.8L78.1,545.5L71.8,554.5C39.7,599.9 24.8,647.7 26.3,700.0C27.0,725.5 29.9,740.4 38.1,761.5C54.1,802.8 92.4,839.7 139.7,859.4C173.7,873.6 221.7,876.4 265.6,866.9C295.4,860.5 327.4,844.5 349.4,825.1C376.1,801.6 394.5,768.6 401.9,731.0C408.8,695.7 407.7,672.3 397.6,641.7C382.0,594.4 359.6,564.6 310.5,525.7L289.5,509.0L289.2,588.7L289.0,668.4L292.2,673.9C297.0,681.9 309.3,694.0 317.0,698.3C327.0,703.7 335.7,706.0 349.6,706.7L361.8,707.3L362.2,712.2L362.5,717.0L252.6,717.0L142.7,717.0L143.4,713.2C143.7,711.2 144.0,708.9 144.0,708.2C144.0,707.4 146.1,707.0 150.9,707.0C167.3,707.0 181.0,703.4 191.8,696.3C199.6,691.1 208.8,681.6 213.3,673.9L217.0,667.5L216.8,559.5L216.5,451.5L174.0,418.0C117.7,373.7 105.0,360.9 92.6,336.3C80.3,311.7 75.3,283.0 78.0,251.8C81.9,205.1 99.3,168.0 131.9,136.5C165.7,103.9 212.3,89.4 271.5,93.0C291.7,94.2 309.7,96.4 323.5,99.2C331.3,100.9 338.8,101.4 357.5,101.9L381.5,102.5L382.2,140.5C382.5,161.4 383.0,189.4 383.2,202.7L383.6,227.0L378.3,227.0L373.0,227.0L373.0,222.2C373.0,211.7 368.6,193.3 363.4,182.4C352.2,158.6 328.7,139.1 300.5,130.1C283.3,124.6 276.2,123.6 255.0,123.5C229.6,123.5 216.2,126.3 198.1,135.4C158.0,155.5 134.0,195.6 134.0,242.2C134.0,274.2 145.6,301.3 168.6,323.0C173.0,327.1 217.0,362.4 266.5,401.4C380.5,491.3 379.7,490.6 397.0,508.0C450.8,561.8 476.2,620.6 476.2,691.5C476.3,734.0 465.9,770.1 443.9,804.0C426.0,831.6 397.9,858.7 369.2,876.2L361.5,881.0L235.0,881.0L108.5,881.0L98.7,875.1ZM496.6,698.7C495.8,693.1 493.0,658.1 493.0,654.8C493.0,652.9 494.3,651.2 498.5,648.1C522.1,630.3 538.1,605.4 547.4,572.5C551.2,558.8 553.1,546.1 553.9,528.5C556.0,487.1 547.2,449.9 527.7,417.6C498.9,369.8 434.4,342.2 344.5,339.2L323.5,338.5L323.2,333.9L322.9,329.3L337.5,328.7C378.6,326.8 413.4,316.8 437.0,300.2C453.2,288.8 469.3,269.5 477.4,251.9C497.5,207.8 496.6,143.3 475.4,101.6C461.0,73.4 436.6,53.0 404.5,42.5C383.2,35.5 369.2,34.0 325.2,34.0L289.0,34.0L289.0,57.0L289.0,80.0L275.8,80.0C268.5,80.0 253.5,80.3 242.4,80.7L222.3,81.3L221.7,72.4C220.5,55.3 214.9,42.9 203.0,31.0C189.3,17.2 177.4,12.2 156.9,11.3L144.2,10.7L143.6,7.1C143.3,5.1 143.0,2.9 143.0,2.2C143.0,0.3 365.0,0.5 385.5,2.5C435.1,7.4 475.1,21.0 505.3,43.3C517.7,52.4 535.4,70.8 543.3,82.6C559.5,106.9 566.9,131.3 568.6,165.0C569.7,186.6 566.7,208.7 560.0,229.0C552.4,252.2 542.7,267.5 523.1,287.0C504.6,305.4 487.2,316.7 465.8,324.2C462.0,325.4 459.0,326.8 459.0,327.1C459.0,327.4 462.3,328.2 466.2,328.9C470.2,329.6 477.8,331.3 483.0,332.6C558.5,352.2 610.8,406.4 626.5,481.0C631.0,502.2 632.3,536.8 629.5,556.9C623.4,599.5 603.3,635.4 569.8,663.6C552.3,678.2 529.5,691.2 506.8,699.4L497.1,702.9L496.6,698.7Z" fill="url(#sb)" fill-rule="evenodd"/></svg>